<?xml version="1.0" encoding="utf-8"?>
<!-- Generator: Adobe Illustrator 18.1.1, SVG Export Plug-In . SVG Version: 6.00 Build 0)  -->
<svg version="1.1" id="Layer_1" xmlns="http://www.w3.org/2000/svg" xmlns:xlink="http://www.w3.org/1999/xlink" x="0px" y="0px"
	 viewBox="0 0 76.8 105.2" enable-background="new 0 0 76.8 105.2" xml:space="preserve">
<polygon fill="#356C80" points="57,35.9 57,35.9 57.1,36.1 "/>
<path fill="#356C80" d="M10.9,73.3c0-2.9,0.3-5.7,0.8-8.4c-4.3-1-8.2-2.2-11.4-3.6C0.1,62.8,0,64.2,0,65.6c0,2.2,0.1,4.3,0.4,6.4
	c3.1,1.2,6.7,2.2,10.6,3C10.9,74.5,10.9,73.9,10.9,73.3z"/>
<path fill="#356C80" d="M76,59.9c-3.2,1.8-7.4,3.4-12.3,4.6c0.7,3,1,6.2,1,9.3c0,0.2,0,0.5,0,0.7c4.6-1.1,8.6-2.5,11.7-4.1
	c0.2-1.6,0.3-3.2,0.3-4.8C76.8,63.9,76.5,62,76,59.9z"/>
<path fill="#356C80" d="M17.8,49.4c-5.2-0.9-9.8-2.2-13.5-3.8c-1.3,3.5-2.3,6.8-3,9.8c3,1.6,7.1,2.9,11.7,3.9
	C14.2,55.7,15.8,52.3,17.8,49.4z"/>
<path fill="#356C80" d="M62.2,58.9c5.5-1.4,9.7-3.1,12.2-4.8c-1-2.8-2.2-5.9-3.7-9.2c-3.6,1.8-8.2,3.2-13.6,4.3
	C59.2,52,60.9,55.3,62.2,58.9z"/>
<path fill="#356C80" d="M36.8,105.2c8.2,0,20-3.3,26.5-9.2c-0.3-0.1-0.5-0.3-0.8-0.4c-7.3,1.7-16,2.6-25.2,2.6
	c-8.5,0-16.7-0.8-23.8-2.3c-0.1,0.1-0.3,0.1-0.4,0.2C20.3,101.9,26.5,105.2,36.8,105.2z"/>
<path fill="#356C80" d="M36.7,19.8c-7.1,0-13.7-1-18.5-2.8c-1.7,2.9-3.3,5.8-4.8,8.6c5.7,2.2,14.3,3.6,23.3,3.6
	c9.3,0,18-1.4,23.7-3.7c-1.6-2.7-3.3-5.5-5.1-8.4C50.4,18.8,43.8,19.8,36.7,19.8z"/>
<path fill="#356C80" d="M74.2,77.7C68.1,80,60.5,81.6,52,82.5c-4.4,0.7-10,1.2-15.1,1.2c-5,0-9.5-0.4-13.8-1.1
	c-7.8-0.7-15-2.1-20.9-3.9c1.1,3.3,2.5,6.4,4.4,9.1c7.8,2.9,18.5,4.6,30.4,4.6c13,0,25.6-2.1,33.3-5.4c1.8-2.8,3.3-5.9,4.4-9.1
	C74.5,77.9,74.3,77.8,74.2,77.7z"/>
<path fill="#356C80" d="M36.8,37.5c5.5,0,11.6,2.5,15.8,6.5c6.3-1,11.8-2.5,15.5-4.4c-1.4-2.9-3.1-5.9-4.9-9.1
	C56.8,33.3,47.2,35,36.7,35c-10.1,0-19.5-1.5-26-4.2c-1.6,3.2-3.1,6.4-4.3,9.4c4,1.8,8.8,3.2,15.1,4C25.8,40,31,37.5,36.8,37.5z"/>
<path fill="#356C80" d="M21.2,12c4.1,1.3,9.6,2,15.5,2c5.8,0,11.3-0.7,15.4-2c-1.7-2.7-3.6-5.4-5.4-8.2c-3.9-3.7-6-3.8-9.9-3.8
	c-3.9,0-6.8,0.6-10.4,3.9C24.5,6.6,22.8,9.3,21.2,12z"/>
<path fill="#356C80" d="M62.2,58.9c5.5-1.4,9.7-3.1,12.2-4.8c-1-2.8-2.2-5.9-3.7-9.2c-3.6,1.8-8.2,3.2-13.6,4.3
	C59.2,52,60.9,55.3,62.2,58.9z"/>
<path fill="#356C80" d="M24.9,53.8c0-2,1-3.6,3-3.6h20.2c2,0,2.8,1.6,2.8,3.6v19c0,2-0.8,3.4-2.8,3.4H27.9c-2,0-3-1.5-3-3.4V53.8z"
	/>
<rect x="48.9" y="55.2" fill="#356C80" width="4" height="2"/>
<rect x="49.9" y="60.2" fill="#356C80" width="3" height="2"/>
<rect x="49.9" y="65.2" fill="#356C80" width="3" height="2"/>
<rect x="49.9" y="70.2" fill="#356C80" width="3" height="2"/>
<rect x="21.9" y="55.2" fill="#356C80" width="3" height="2"/>
<rect x="21.9" y="60.2" fill="#356C80" width="3" height="2"/>
<rect x="21.9" y="65.2" fill="#356C80" width="3" height="2"/>
<rect x="21.9" y="70.2" fill="#356C80" width="3" height="2"/>
<path fill="#343433" d="M69,72.2"/>
<path fill="#356C80" d="M49.9,54.2"/>
</svg>
